<?xml version="1.0" encoding="UTF-8"?>
<svg version="1.1" xmlns="http://www.w3.org/2000/svg" width="1208" height="1208">
<path d="M0 0 C398.64 0 797.28 0 1208 0 C1208 398.64 1208 797.28 1208 1208 C809.36 1208 410.72 1208 0 1208 C0 809.36 0 410.72 0 0 Z " fill="#FEFEFE" transform="translate(0,0)"/>
<path d="M0 0 C16.91095682 15.3105423 29.18597452 33.30170631 40.40478516 53.01000977 C40.83114258 53.75669922 41.2575 54.50338867 41.69677734 55.27270508 C56.79238264 82.028199 67.11245202 111.16871913 77.40478516 140.01000977 C77.72898437 140.91769104 78.05318359 141.82537231 78.38720703 142.76055908 C83.37972762 156.74515181 88.32284911 170.74704769 93.25665283 184.75244141 C95.26057872 190.43813237 97.26835844 196.12246221 99.27587891 201.80688477 C102.34490787 210.49782549 105.41286093 219.18914419 108.47900391 227.88110352 C108.82266495 228.8552269 109.16632599 229.82935028 109.520401 230.83299255 C111.00021847 235.02771529 112.4797982 239.22252101 113.95825195 243.41772461 C116.42698377 250.42084593 118.90449244 257.42077347 121.39173889 264.41734314 C122.840766 268.49348109 124.28843279 272.57010174 125.73608398 276.64672852 C126.47109143 278.71532595 127.20676409 280.78368714 127.94311523 282.85180664 C132.0874302 294.49390808 136.18706075 306.1427472 140.00010681 317.89837646 C141.64938634 322.93537486 143.50555349 327.84561996 145.50218201 332.75506592 C146.57461554 335.43429143 147.51378637 338.14041527 148.40478516 340.88500977 C148.73478516 341.89047852 149.06478516 342.89594727 149.40478516 343.93188477 C150.07145182 345.9839681 150.73811849 348.03605143 151.40478516 350.08813477 C153.24960647 355.70907472 155.2334059 361.21997537 157.47167969 366.69604492 C158.86847313 370.15988801 160.11233319 373.67164748 161.34228516 377.19750977 C161.59679443 377.92091553 161.85130371 378.64432129 162.11352539 379.38964844 C163.3503186 382.92196685 164.56172447 386.46061896 165.72509766 390.01782227 C166.04039429 390.9803894 166.04039429 390.9803894 166.36206055 391.96240234 C166.92462057 393.69138373 167.47947459 395.42286722 168.03369141 397.15454102 C169.48734065 401.42059695 171.25981027 405.55018627 173.01049805 409.70117188 C174.44100446 413.09596324 175.84456924 416.50099612 177.24462891 419.90844727 C187.81074263 445.47823752 199.02094768 470.76837171 212.40478516 495.01000977 C212.79520996 495.71770508 213.18563477 496.42540039 213.58789062 497.15454102 C226.67441791 520.62080016 242.00589095 543.3888114 260.40478516 563.01000977 C261.59867183 564.379468 262.7867089 565.75406047 263.96728516 567.13500977 C288.30451169 594.98950446 322.33278968 616.34236235 359.40478516 621.01000977 C364.03408249 621.27494347 368.64393559 621.29550438 373.27978516 621.26000977 C375.11718262 621.25420898 375.11718262 621.25420898 376.99169922 621.24829102 C385.27952145 621.16891842 393.27318603 620.72192537 401.40478516 619.01000977 C401.40478516 621.32000977 401.40478516 623.63000977 401.40478516 626.01000977 C383.80020226 633.1955538 364.94090206 636.56189292 345.99267578 636.34619141 C343.77290691 636.32243616 341.55433842 636.32568898 339.33447266 636.33227539 C325.83130914 636.3085096 312.89795745 634.954414 299.96728516 630.82250977 C298.97921875 630.51063721 297.99115234 630.19876465 296.97314453 629.87744141 C273.21781391 622.20950816 252.0930842 609.55992593 233.40478516 593.01000977 C232.85790039 592.52935059 232.31101562 592.04869141 231.74755859 591.5534668 C220.72026821 581.80787185 210.55038558 571.54075847 201.40478516 560.01000977 C200.51916915 558.94680409 199.63103586 557.88569144 198.74072266 556.82641602 C185.26015024 540.63309213 173.91768355 522.70415691 163.69042969 504.31225586 C162.39290116 501.9887287 161.07065045 499.68065551 159.74462891 497.37329102 C136.83316669 457.11381065 121.88272799 412.97388596 106.90478516 369.32250977 C106.61332611 368.47581726 106.32186707 367.62912476 106.02157593 366.7567749 C102.6931012 357.07116968 99.54330475 347.37131485 96.75830078 337.51464844 C94.79064425 330.96608591 92.56708355 324.49690494 90.40478516 318.01000977 C28.36478516 317.68000977 -33.67521484 317.35000977 -97.59521484 317.01000977 C-98.58521484 320.31000977 -99.57521484 323.61000977 -100.59521484 327.01000977 C-101.59347468 329.73574428 -102.61134374 332.43255525 -103.68505859 335.12719727 C-103.98158325 335.88167648 -104.27810791 336.6361557 -104.58361816 337.41349792 C-105.22635713 339.04813905 -105.87080849 340.68210772 -106.51681519 342.31546021 C-108.30213429 346.83112854 -110.07288297 351.3525132 -111.84521484 355.87329102 C-112.22358994 356.83760544 -112.60196503 357.80191986 -112.99180603 358.79545593 C-117.28612801 369.75091493 -121.51765628 380.73045715 -125.74099731 391.71343994 C-126.58707049 393.91362598 -127.43363019 396.11362501 -128.2807312 398.31341553 C-132.76835142 409.96753792 -137.22694354 421.63238227 -141.63037109 433.31860352 C-142.2063932 434.84107445 -142.2063932 434.84107445 -142.79405212 436.39430237 C-143.1474617 437.33539352 -143.50087128 438.27648468 -143.86499023 439.24609375 C-144.17594131 440.07189438 -144.4868924 440.89769501 -144.80726624 441.7485199 C-147.84266484 450.4604119 -147.47322253 459.59390798 -143.59521484 468.01000977 C-139.02931261 475.0158915 -133.37343161 478.41727084 -125.59521484 481.01000977 C-123.36947149 481.23452435 -121.13939965 481.41783854 -118.90771484 481.57250977 C-117.72822266 481.65629883 -116.54873047 481.74008789 -115.33349609 481.82641602 C-114.42986328 481.88700195 -113.52623047 481.94758789 -112.59521484 482.01000977 C-112.59521484 483.99000977 -112.59521484 485.97000977 -112.59521484 488.01000977 C-157.80521484 488.01000977 -203.01521484 488.01000977 -249.59521484 488.01000977 C-249.59521484 485.70000977 -249.59521484 483.39000977 -249.59521484 481.01000977 C-248.54205078 480.99583008 -247.48888672 480.98165039 -246.40380859 480.96704102 C-231.44274652 480.55834518 -218.78927945 477.15555822 -206.59521484 468.01000977 C-205.81662109 467.42606445 -205.03802734 466.84211914 -204.23583984 466.24047852 C-192.03223872 456.24615001 -185.3734015 441.71234442 -179.54833984 427.41235352 C-179.18008087 426.51736145 -178.8118219 425.62236938 -178.43240356 424.70025635 C-177.23327636 421.7840567 -176.03930126 418.86577659 -174.84521484 415.94750977 C-173.99880647 413.88719141 -173.1519571 411.82705418 -172.3046875 409.76708984 C-170.57182695 405.55365446 -168.84041186 401.33962957 -167.10986328 397.12524414 C-163.76186429 388.9773486 -160.38821599 380.84013928 -157.01086426 372.70437622 C-155.96404153 370.18263861 -154.91773289 367.66068829 -153.87158203 365.13867188 C-152.47720606 361.77719792 -151.08266948 358.41579069 -149.68798828 355.05444336 C-146.51036522 347.39558081 -143.33487138 339.7358354 -140.15917969 332.07617188 C-139.09756452 329.51567692 -138.03585823 326.95521977 -136.97412109 324.39477539 C-133.76743222 316.66156637 -130.56110432 308.92820851 -127.35638428 301.19418335 C-119.9792563 283.39086161 -112.59280999 265.59155861 -105.17565918 247.80487061 C-98.00954198 230.61881809 -90.88034288 213.41750599 -83.75244141 196.21557617 C-80.55482944 188.49900259 -77.35519488 180.78326766 -74.15570068 173.06747437 C-72.38545473 168.79835433 -70.61534155 164.52917925 -68.84521484 160.26000977 C-68.13688215 158.55167617 -67.42854881 156.84334284 -66.72021484 155.13500977 C-66.36958984 154.28938477 -66.01896484 153.44375977 -65.65771484 152.57250977 C-64.59521484 150.01000977 -63.53271484 147.44750977 -62.47021484 144.88500977 C-61.94431511 143.6166629 -61.94431511 143.6166629 -61.40779114 142.32269287 C-60.69920434 140.61374884 -59.99061669 138.90480515 -59.2820282 137.19586182 C-57.51506596 132.93437511 -55.74811829 128.67288237 -53.98120117 124.41137695 C-51.11753145 117.50472629 -48.2538553 110.59807832 -45.38964844 103.69165039 C-44.84020569 102.36673836 -44.84020569 102.36673836 -44.27966309 101.01506042 C-43.54092511 99.23385513 -42.80207463 97.4526965 -42.06311035 95.67158508 C-40.25856995 91.32163953 -38.45604201 86.97088406 -36.65820312 82.61816406 C-33.71815888 75.50464776 -30.7735271 68.39471941 -27.73609924 61.32211304 C-26.57489496 58.61723591 -25.42358435 55.9082005 -24.27285767 53.19885254 C-23.49548649 51.38158744 -22.70222253 49.57114633 -21.90844727 47.76098633 C-21.45187744 46.68429687 -20.99530762 45.60760742 -20.52490234 44.49829102 C-20.12513184 43.5757251 -19.72536133 42.65315918 -19.31347656 41.70263672 C-18.4368008 38.41614557 -18.73184896 36.28181549 -19.59521484 33.01000977 C-21.13714779 30.78245185 -22.61322927 28.88189018 -24.40771484 26.88500977 C-24.89836426 26.32587891 -25.38901367 25.76674805 -25.89453125 25.19067383 C-27.44316484 23.44619086 -29.01404678 21.72502554 -30.59521484 20.01000977 C-31.08521973 19.47472656 -31.57522461 18.93944336 -32.08007812 18.38793945 C-42.86131907 6.74289811 -55.14617937 -1.46406973 -69.59521484 -7.98999023 C-70.46146484 -8.39088867 -71.32771484 -8.79178711 -72.22021484 -9.20483398 C-98.06560614 -19.90644132 -131.19484835 -15.92840889 -156.62646484 -5.72436523 C-158.59521484 -4.98999023 -158.59521484 -4.98999023 -160.59521484 -4.98999023 C-161.09021484 -8.94999023 -161.09021484 -8.94999023 -161.59521484 -12.98999023 C-149.80543521 -17.63821254 -138.02559004 -22.11264778 -125.78271484 -25.42749023 C-124.9201709 -25.66161621 -124.05762695 -25.89574219 -123.16894531 -26.13696289 C-79.02249445 -37.67824032 -34.53090417 -30.5862394 0 0 Z " fill="#AA971B" transform="translate(575.59521484375,326.989990234375)"/>
<path d="M0 0 C0.33 0 0.66 0 1 0 C1.11891602 0.57814453 1.23783203 1.15628906 1.36035156 1.75195312 C19.66713422 89.07159785 58.14491596 173.01993869 109 246 C109.48098145 246.6923877 109.96196289 247.38477539 110.45751953 248.09814453 C116.65137852 256.9891455 123.21359185 265.55417912 130 274 C130.75023437 274.93457031 131.50046875 275.86914062 132.2734375 276.83203125 C136.38636339 281.90266009 140.58089077 286.90329025 144.8125 291.875 C145.24941162 292.39126953 145.68632324 292.90753906 146.13647461 293.43945312 C155.3671219 304.21967598 165.23215609 314.41882462 175.26391602 324.44921875 C177.07012195 326.25763126 178.86812342 328.07395139 180.66601562 329.890625 C186.73874579 335.9919698 192.85911626 341.77202003 199.63208008 347.09960938 C202.06635527 349.05325388 204.34664628 351.11766488 206.625 353.25 C228.28898203 372.93210355 253.73199055 389.3527096 279 404 C279.65452148 404.37946777 280.30904297 404.75893555 280.98339844 405.14990234 C299.89020067 416.03330574 319.39224158 425.68025292 339.5 434.125 C340.481465 434.53898544 340.481465 434.53898544 341.48275757 434.96133423 C348.18107165 437.77541385 354.85298492 440.44513498 361.87060547 442.3671875 C364.19620933 443.0583094 366.38951909 443.93479107 368.625 444.875 C381.97212203 450.32112089 396.07474103 453.69879843 410.01757812 457.23388672 C412.87749778 457.96853209 415.72805398 458.73205392 418.578125 459.50390625 C444.23688484 466.35130443 470.31730888 470.02696207 496.6875 472.8125 C497.68347198 472.9177298 498.67944397 473.02295959 499.70559692 473.13137817 C506.13290913 473.80247993 512.56341985 474.42469829 519 475 C520.26223389 475.1141626 521.52446777 475.2283252 522.82495117 475.34594727 C537.48732646 476.45887334 552.24009165 476.29156178 566.9375 476.3125 C567.68701054 476.31379787 568.43652107 476.31509575 569.20874405 476.31643295 C596.97640598 476.3527677 624.38413042 475.04236996 652 472 C653.90250227 471.79471982 655.8050088 471.58947912 657.70751953 471.38427734 C674.85405908 469.51459273 691.99226554 467.57608014 708.88671875 464.03515625 C716.77898139 462.38710875 724.75194514 461.14687569 732.70605469 459.83789062 C739.32708728 458.72365965 745.80029411 457.36835092 752.29858398 455.6809082 C755.29573643 454.92545785 758.29598276 454.32892928 761.33496094 453.7722168 C785.34917596 449.36636115 809.141835 442.82828853 832.48974609 435.75683594 C835.53078009 434.83997099 838.57924164 433.9503364 841.63012695 433.06689453 C854.28794208 429.37139148 866.84513353 425.4195488 879.3359375 421.1953125 C880.80670746 420.69878677 880.80670746 420.69878677 882.30718994 420.19223022 C886.37357724 418.81862081 890.43957249 417.44401525 894.50195312 416.05859375 C897.50687895 415.03491695 900.51481835 414.02057397 903.5234375 413.0078125 C904.44724213 412.6902298 905.37104675 412.37264709 906.32284546 412.04544067 C907.17198517 411.76119232 908.02112488 411.47694397 908.89599609 411.18408203 C909.64271576 410.93046906 910.38943542 410.67685608 911.15878296 410.41555786 C913 410 913 410 915 411 C858.39412767 454.64028146 791.7632201 487.20123213 725 512 C723.77490723 512.45777832 722.54981445 512.91555664 721.28759766 513.38720703 C706.80448271 518.77434839 692.32762233 523.5962646 677.34814453 527.40039062 C673.9305811 528.27308098 670.52932285 529.20203447 667.125 530.125 C664.75003319 530.75012611 662.37503429 531.37513033 660 532 C658.89527344 532.30421875 657.79054688 532.6084375 656.65234375 532.921875 C641.96525186 536.8213858 626.95773521 539.37663327 612 542 C610.85595703 542.20157715 609.71191406 542.4031543 608.53320312 542.61083984 C560.20643946 550.93021784 509.64458499 552.01966559 461 546 C459.84247223 545.85857574 459.84247223 545.85857574 458.66156006 545.71429443 C438.27175183 543.21503035 418.06682456 540.62373801 398.22265625 535.14453125 C395.15811802 534.30099265 392.0830537 533.5190296 388.99609375 532.76171875 C330.40830057 518.25541691 275.01541481 491.49989196 227 455 C225.80776564 454.1061383 224.61509277 453.21286102 223.421875 452.3203125 C217.78033327 448.07328101 212.30673247 443.64691298 206.9375 439.0625 C206.16152466 438.40000244 206.16152466 438.40000244 205.36987305 437.72412109 C195.37543828 429.08566897 185.81859536 420.0052699 176.48071289 410.66601562 C174.8082835 408.99578905 173.12796331 407.33377621 171.44726562 405.671875 C165.56034741 399.8147656 160.03806646 393.87426629 154.88452148 387.35205078 C153.08530465 385.10646781 151.20548539 382.9847224 149.25 380.875 C143.04018531 373.96148861 137.56698731 366.43157656 132 359 C131.50532227 358.34128906 131.01064453 357.68257812 130.50097656 357.00390625 C123.66990893 347.88338182 117.16171241 338.58587354 111 329 C110.27756104 327.87609863 110.27756104 327.87609863 109.54052734 326.72949219 C76.96200656 275.72345293 53.26325459 220.53177218 35 163 C34.79266235 162.34898315 34.58532471 161.69796631 34.3717041 161.02722168 C19.95290492 115.6765059 9.80754382 69.23148239 2.375 22.25 C2.18496399 21.05272781 2.18496399 21.05272781 1.99108887 19.83126831 C-0.14653756 6.23082457 -0.14653756 6.23082457 0 0 Z " fill="#B9A220" transform="translate(66,602)"/>
<path d="M0 0 C1.74603516 0.0009668 1.74603516 0.0009668 3.52734375 0.00195312 C17.79669444 0.07306285 31.35891413 1.50439329 45.33203125 4.37109375 C60.41573363 7.13889581 74.29377977 6.69277437 90.125 7.1875 C90.125 34.9075 90.125 62.6275 90.125 91.1875 C88.145 91.1875 86.165 91.1875 84.125 91.1875 C84.06554199 90.62466309 84.00608398 90.06182617 83.94482422 89.48193359 C81.70531982 69.24390769 76.36902395 52.58006614 60.5 38.875 C44.21353028 26.71168717 26.07484283 21.74750268 6 21.8125 C5.31146942 21.8137085 4.62293884 21.81491699 3.9135437 21.81616211 C-16.88939557 21.91535189 -34.97813039 27.31670201 -50.875 41.1875 C-51.85210938 41.95578125 -52.82921875 42.7240625 -53.8359375 43.515625 C-65.92084502 53.59521803 -74.01980305 71.88807135 -75.875 87.1875 C-76.85047339 102.07810137 -77.06084172 117.40687177 -70.6875 131.1875 C-70.37635254 131.87046143 -70.06520508 132.55342285 -69.74462891 133.25708008 C-61.98910297 149.89368153 -50.11293125 161.20141715 -35.54296875 171.94287109 C-32.63156202 174.11534643 -29.78755461 176.37301693 -26.9375 178.625 C-25.7618048 179.55089052 -24.58602334 180.47667153 -23.41015625 181.40234375 C-22.82637207 181.86237793 -22.24258789 182.32241211 -21.64111328 182.79638672 C-18.72128952 185.09624237 -15.79798107 187.39165945 -12.875 189.6875 C-11.70831639 190.6041451 -10.54164973 191.52081177 -9.375 192.4375 C-8.7975 192.89125 -8.22 193.345 -7.625 193.8125 C12.79166667 209.85416667 33.20833333 225.89583333 53.625 241.9375 C54.2027417 242.39141113 54.7804834 242.84532227 55.37573242 243.31298828 C56.5400707 244.22788353 57.70429633 245.14292216 58.8684082 246.05810547 C61.81978291 248.37807512 64.77319301 250.6953683 67.73046875 253.0078125 C70.66657204 255.30474777 73.59685945 257.60887702 76.52148438 259.92041016 C77.98652239 261.0780757 79.45406935 262.23256431 80.921875 263.38671875 C91.70325755 272.01501455 102.47827093 281.37416455 111.125 292.1875 C112.32962891 293.63576172 112.32962891 293.63576172 113.55859375 295.11328125 C143.24775329 331.3058316 158.15576523 374.51415868 153.83203125 421.36181641 C149.31236175 457.92618562 129.70797274 493.65011033 100.59228516 516.38427734 C86.61761081 527.08748418 71.56992696 535.00379495 55.125 541.1875 C53.92617187 541.65027344 52.72734375 542.11304688 51.4921875 542.58984375 C40.63931051 546.5135762 29.48157576 548.33658193 18.125 550.1875 C17.2282959 550.36547119 16.3315918 550.54344238 15.40771484 550.72680664 C11.16561606 551.32213911 7.00898743 551.34990834 2.73046875 551.35546875 C1.82484695 551.35879715 0.91922516 551.36212555 -0.01383972 551.36555481 C-1.93101497 551.37060604 -3.84819896 551.37296369 -5.76538086 551.37280273 C-8.6399676 551.37496426 -11.5141542 551.39306956 -14.38867188 551.41210938 C-29.66058259 551.4606283 -44.43824933 550.57717839 -59.25 546.5625 C-60.21550781 546.30452637 -61.18101562 546.04655273 -62.17578125 545.78076172 C-100.20286028 535.1933933 -132.60499807 511.52826153 -152.09228516 477.03271484 C-158.00769108 465.97663203 -161.65709208 454.26585546 -164.875 442.1875 C-165.06787598 441.47609863 -165.26075195 440.76469727 -165.45947266 440.03173828 C-167.00394048 434.14825064 -167.5371907 428.50829458 -167.78271484 422.44628906 C-167.84798123 420.8488165 -167.92497842 419.25180292 -168.01025391 417.65527344 C-169.20553469 393.39324681 -164.26681724 370.12737346 -153.875 348.1875 C-153.53098145 347.4553125 -153.18696289 346.723125 -152.83251953 345.96875 C-145.82059157 331.32379089 -136.7248285 317.74326579 -125.51953125 305.97265625 C-123.80340636 304.27522669 -123.80340636 304.27522669 -122.875 302.1875 C-118.16153846 303.67596154 -118.16153846 303.67596154 -116.7109375 306.265625 C-116.43507813 306.89984375 -116.15921875 307.5340625 -115.875 308.1875 C-116.39707031 308.82171875 -116.91914062 309.4559375 -117.45703125 310.109375 C-142.8599142 342.31898491 -154.01842907 383.30752522 -149.56591797 424.01318359 C-148.77057382 429.21085409 -147.45948474 434.18028539 -145.875 439.1875 C-145.66601074 439.88552734 -145.45702148 440.58355469 -145.24169922 441.30273438 C-140.01802621 458.53498601 -131.73617163 473.64912649 -119.875 487.1875 C-118.79992187 488.41533203 -118.79992187 488.41533203 -117.703125 489.66796875 C-99.9729297 508.4979694 -75.87118205 519.2192777 -50.875 524.1875 C-49.17537109 524.52974609 -49.17537109 524.52974609 -47.44140625 524.87890625 C-10.95150044 530.91134155 27.50785478 523.56978073 57.9375 502.3125 C82.88732952 483.13774448 99.6091365 457.05306781 104.625 425.625 C108.17983322 387.46407951 97.91901742 352.37791625 73.3359375 322.7421875 C61.89248013 309.51953534 49.57272024 298.71173272 35.64282227 288.1706543 C30.63812627 284.37659993 25.73275875 280.48013345 20.875 276.5 C15.1044455 271.77346723 9.26121104 267.1700088 3.33203125 262.64453125 C-1.85930911 258.6795672 -6.97829566 254.62162666 -12.10888672 250.57861328 C-15.02871048 248.27875763 -17.95201893 245.98334055 -20.875 243.6875 C-22.04168361 242.7708549 -23.20835027 241.85418823 -24.375 240.9375 C-24.9525 240.48375 -25.53 240.03 -26.125 239.5625 C-32.54166667 234.52083333 -38.95833333 229.47916667 -45.375 224.4375 C-45.95282227 223.9835083 -46.53064453 223.5295166 -47.12597656 223.06176758 C-48.28943323 222.14759985 -49.45284489 221.23337484 -50.61621094 220.3190918 C-54.18535547 217.51426407 -57.75619557 214.71161349 -61.32836914 211.91064453 C-63.09981782 210.51977206 -64.86838692 209.12530059 -66.63671875 207.73046875 C-68.58565101 206.19441213 -70.54427659 204.67837526 -72.51953125 203.17578125 C-95.30339033 185.61859098 -111.82126148 160.92682201 -115.61865234 131.93115234 C-118.85734878 97.26784709 -110.96340643 65.5703188 -88.625 38.5625 C-66.80860679 13.01926396 -33.11972597 -0.34613575 0 0 Z " fill="#C6A32C" transform="translate(1014.875,327.8125)"/>
<path d="M0 0 C0.70473827 -0.00173973 1.40947655 -0.00347946 2.13557053 -0.00527191 C23.72428865 -0.05218419 45.15158678 0.59651635 66.6875 2.1875 C67.86866394 2.27454193 69.04982788 2.36158386 70.26678467 2.45126343 C82.93170264 3.4058681 95.54362097 4.56079671 108.125 6.3125 C108.125 6.6425 108.125 6.9725 108.125 7.3125 C106.97016113 7.35737549 105.81532227 7.40225098 104.62548828 7.44848633 C79.72116388 8.43134029 54.91690684 9.71052322 30.125 12.3125 C28.59335205 12.468396 28.59335205 12.468396 27.03076172 12.62744141 C-53.25741304 21.04041942 -133.79406709 49.83144975 -197.875 99.3125 C-198.844375 100.06015625 -199.81375 100.8078125 -200.8125 101.578125 C-203.19571289 103.4571967 -205.54103279 105.37267957 -207.875 107.3125 C-208.83921875 108.10398437 -209.8034375 108.89546875 -210.796875 109.7109375 C-225.77690132 122.11547493 -240.23568542 135.51706705 -252.875 150.3125 C-253.76738203 151.33017055 -254.66068697 152.34703222 -255.5546875 153.36328125 C-275.51060692 176.15871281 -292.48316979 201.68210576 -306.875 228.3125 C-307.36129883 229.20291992 -307.84759766 230.09333984 -308.34863281 231.01074219 C-320.36593395 253.10102479 -330.39832844 275.98526418 -338.91015625 299.640625 C-339.55459566 301.42522644 -340.20829358 303.20651101 -340.87109375 304.984375 C-353.3235874 338.51404661 -361.08858885 374.09477414 -366.875 409.3125 C-367.05272949 410.36405273 -367.23045898 411.41560547 -367.41357422 412.49902344 C-374.0711162 452.41927046 -375.56109905 492.91669548 -375.875 533.3125 C-378.13562729 529.92155906 -378.64035837 526.99287675 -379.27734375 523.06640625 C-379.46219078 521.97863136 -379.46219078 521.97863136 -379.65077209 520.86888123 C-380.04477189 518.53866633 -380.42856304 516.20689153 -380.8125 513.875 C-381.06643614 512.37163974 -381.32098802 510.86838335 -381.57617188 509.36523438 C-387.88313669 471.97197998 -391.26246953 435.21477726 -391.25061417 397.28185654 C-391.2500094 394.91182588 -391.25252336 392.54181233 -391.25521851 390.17178345 C-391.29558958 291.41260736 -369.17632094 191.41601948 -288.25 98.4375 C-282.07383501 92.2988407 -275.77483195 86.63153471 -268.875 81.3125 C-267.823576 80.46203419 -266.77420407 79.60902709 -265.7265625 78.75390625 C-203.02888443 27.91573373 -123.62456726 8.47650382 -44.875 1.3125 C-43.740625 1.20574951 -42.60625 1.09899902 -41.4375 0.98901367 C-27.66200531 -0.12311239 -13.81113323 0.0248225 0 0 Z " fill="#B7A21E" transform="translate(675.875,87.6875)"/>
<path d="M0 0 C0.99 0.495 0.99 0.495 2 1 C1.26136719 1.77601563 0.52273438 2.55203125 -0.23828125 3.3515625 C-7.10372121 10.63367782 -13.44697944 18.15121735 -19.52539062 26.09716797 C-21.05959746 28.0769044 -22.62705975 30.0261121 -24.203125 31.97265625 C-39.46075949 50.94983552 -52.36337471 71.63797948 -64 93 C-64.46067871 93.83772949 -64.92135742 94.67545898 -65.39599609 95.53857422 C-96.34579103 152.06170548 -113.33836715 214.94229399 -119.77087402 278.81079102 C-120.01028273 281.09824747 -120.27625836 283.38170669 -120.54394531 285.66601562 C-122.24966284 300.85624855 -122.31133327 315.97801517 -122.25 331.25 C-122.24723706 332.58563174 -122.24477776 333.92126413 -122.24261475 335.25689697 C-122.2064611 354.16529142 -121.8735813 372.98077571 -120.26904297 391.82666016 C-120.01752044 394.79334787 -119.80212377 397.76022685 -119.59765625 400.73046875 C-116.12521597 447.85340068 -106.46340048 496.90814906 -92.60888672 541.99951172 C-91.97560087 544.08016297 -91.36198148 546.16575406 -90.75390625 548.25390625 C-90.54386963 548.97513672 -90.33383301 549.69636719 -90.11743164 550.43945312 C-89.9136792 551.14005859 -89.70992676 551.84066406 -89.5 552.5625 C-85.31958463 566.91028274 -80.70741999 581.11005234 -75.875 595.25 C-75.59343048 596.0739325 -75.31186096 596.89786499 -75.02175903 597.74676514 C-64.2137428 629.28092941 -51.37271811 659.99790463 -37.10009766 690.1171875 C-36.57851074 691.22320313 -36.05692383 692.32921875 -35.51953125 693.46875 C-34.82500854 694.92958008 -34.82500854 694.92958008 -34.11645508 696.41992188 C-33.16127052 698.62731098 -32.48607333 700.65243558 -32 703 C-36.06852321 700.01058331 -39.09472402 696.61879951 -42.125 692.625 C-43.09867698 691.36176225 -44.07264317 690.09874739 -45.046875 688.8359375 C-45.53865234 688.19495117 -46.03042969 687.55396484 -46.53710938 686.89355469 C-47.91009672 685.11637014 -49.30097673 683.35578753 -50.703125 681.6015625 C-73.06285912 653.60581553 -92.60713997 623.29533444 -110 592 C-110.54382324 591.02740234 -111.08764648 590.05480469 -111.64794922 589.05273438 C-126.55798431 562.28782289 -139.36539581 534.7388875 -150 506 C-150.49564846 504.67502449 -150.99158726 503.35015755 -151.48779297 502.02539062 C-180.26957385 424.9196212 -190.66758584 342.09447295 -151.00756836 188.82788086 C-148.72863253 183.85752302 -146.37317533 178.92589737 -144 174 C-143.55930176 173.0709082 -143.11860352 172.14181641 -142.66455078 171.18457031 C-132.92969102 150.70418682 -121.23483252 131.40468898 -108 113 C-107.4534375 112.23703613 -106.906875 111.47407227 -106.34375 110.68798828 C-99.7234124 101.47973412 -92.95872893 92.48508939 -85.51953125 83.921875 C-83.06963657 81.08075683 -80.71786655 78.17959478 -78.375 75.25 C-74.93058122 71.01213475 -71.28232378 67.13578461 -67.3359375 63.36328125 C-65.39938075 61.40405578 -63.61045278 59.41446147 -61.81640625 57.328125 C-57.6117212 52.48180862 -53.10848618 47.96182143 -48.5625 43.4375 C-47.75490234 42.62603516 -46.94730469 41.81457031 -46.11523438 40.97851562 C-41.81655426 36.68676328 -37.44370717 32.55336209 -32.83813477 28.59301758 C-30.05140858 26.17790423 -27.37657978 23.64755225 -24.6875 21.125 C-19.76398541 16.5411374 -14.70223491 12.19659878 -9.45703125 7.98046875 C-6.24246053 5.38939188 -3.11987892 2.70389506 0 0 Z " fill="#B69E21" transform="translate(364,139)"/>
<path d="M0 0 C1.2686477 3.8059431 0.62814065 5.99474336 -0.109375 9.9375 C-0.37167008 11.38681464 -0.63310505 12.83628514 -0.89379883 14.28588867 C-1.03379303 15.0530722 -1.17378723 15.82025574 -1.31802368 16.61068726 C-15.78381651 96.62271962 -11.2717938 182.90040998 6.36425781 262.10644531 C7.08241354 265.37510187 7.75749236 268.65127785 8.4296875 271.9296875 C11.24211233 285.54450569 14.39330344 298.98931177 18.2421875 312.34863281 C18.98382623 314.94341265 19.69743432 317.54452433 20.40625 320.1484375 C34.28472655 370.29150095 54.17741934 418.32865781 77 465 C77.42490723 465.8770459 77.84981445 466.7540918 78.28759766 467.65771484 C84.96526268 481.43387277 92.35150526 494.7418838 100 508 C100.85150635 509.4862085 100.85150635 509.4862085 101.72021484 511.00244141 C112.47152074 529.76333356 123.82632879 548.12595893 136 566 C136.5878125 566.8672168 136.5878125 566.8672168 137.1875 567.75195312 C148.59366921 584.56562024 160.53866492 600.95357419 173 617 C173.73911621 617.95181152 173.73911621 617.95181152 174.49316406 618.92285156 C182.73953515 629.52057527 191.20769106 639.91849915 199.90307617 650.15112305 C203.65279126 654.57003021 207.3255847 659.04844757 210.984375 663.54296875 C213.60678793 666.73966978 216.29212706 669.87553122 219 673 C215.07830792 671.2200799 211.59835201 668.80782087 208.0625 666.375 C207.02826904 665.6634375 207.02826904 665.6634375 205.97314453 664.9375 C196.40892694 658.28119312 187.21063137 651.13291902 178 644 C177.31067383 643.46810059 176.62134766 642.93620117 175.91113281 642.38818359 C167.97918445 636.26117064 160.2483001 629.9323634 152.64306641 623.40478516 C150.98129563 621.98400818 149.31016022 620.57497247 147.63671875 619.16796875 C133.03593962 606.85240217 119.45292771 593.54558058 105.9375 580.0625 C105.30085419 579.42853302 104.66420837 578.79456604 104.00827026 578.14138794 C97.45339055 571.60742839 90.95332304 565.09578675 85 558 C84.05091639 556.90500264 83.10042467 555.81122396 82.1484375 554.71875 C69.7057606 540.31214068 57.95047339 525.57733584 47 510 C46.28481201 508.98703857 46.28481201 508.98703857 45.55517578 507.95361328 C34.55384918 492.33149847 24.33180417 476.2493605 15.29492188 459.40917969 C14.41167965 457.76592286 13.52207649 456.12607301 12.62695312 454.48925781 C6.01710435 442.38933573 0.09210341 430.06015605 -5.4375 417.4375 C-5.73064087 416.77103455 -6.02378174 416.10456909 -6.32580566 415.41790771 C-10.27941753 406.39822592 -13.77342225 397.30433333 -17 388 C-17.51479187 386.60192726 -18.03469387 385.20571166 -18.5625 383.8125 C-33.56054875 344.03780048 -41.21833591 301.856864 -44.70141602 259.60864258 C-44.88789727 257.3548573 -45.08458516 255.10186572 -45.29663086 252.8503418 C-46.17786687 242.96807781 -46.19954313 233.10111301 -46.1875 223.1875 C-46.18689575 222.26615265 -46.1862915 221.3448053 -46.18566895 220.39553833 C-46.05867253 148.56435392 -33.26668409 74.93748946 -4 9 C-3.62488281 8.15244141 -3.24976563 7.30488281 -2.86328125 6.43164062 C-1.91172449 4.28646441 -0.95735588 2.14259301 0 0 Z " fill="#AF9721" transform="translate(156,315)"/>
<path d="M0 0 C10.3335468 12.83353799 15.37916335 32.60786529 20.93359375 48.09765625 C21.2046525 48.85036364 21.47571125 49.60307102 21.7549839 50.37858772 C29.03684751 70.623507 35.85119752 91.02824806 42.68017578 111.42926025 C45.35558232 119.41900588 48.03822217 127.4063284 50.72052574 135.39376068 C51.37044161 137.32939958 52.02013338 139.26511373 52.66959572 141.20090485 C56.99309132 154.08648699 61.37667979 166.94892864 65.83001709 179.79017639 C69.04895454 189.08989947 72.09282263 198.43478124 75.05053711 207.8203125 C77.59351589 216.0965658 77.59351589 216.0965658 80.78515625 224.1328125 C82 227 82 227 82 231 C25.57 231 -30.86 231 -89 231 C-87.66738477 225.00323147 -86.36123634 219.82839429 -84.0859375 214.25 C-83.7996196 213.5315239 -83.5133017 212.81304779 -83.2183075 212.07279968 C-82.60010055 210.52361082 -81.9788301 208.97564153 -81.35476685 207.42880249 C-80.00040771 204.07140083 -78.66139931 200.70793657 -77.32112122 197.34489441 C-76.61518451 195.57408594 -75.90845779 193.80359223 -75.20097351 192.03340149 C-71.43459489 182.60559717 -67.74566257 173.14805236 -64.0625 163.6875 C-63.39315361 161.9700181 -62.72371958 160.25257034 -62.05419922 158.53515625 C-60.70783229 155.08134916 -59.36183367 151.6273989 -58.01611328 148.17333984 C-55.01351713 140.46750584 -52.00607639 132.76356247 -48.99899292 125.05947876 C-47.33246276 120.78973024 -45.66624734 116.5198589 -44 112.25 C-43.33333484 110.54166608 -42.66666817 108.83333275 -42 107.125 C-41.67 106.279375 -41.34 105.43375 -41 104.5625 C-38 96.87499999 -38 96.87499999 -37.00012207 94.31282043 C-36.33304161 92.60342167 -35.66596805 90.89402022 -34.99890137 89.18461609 C-33.33862206 84.93006176 -31.67822534 80.67555332 -30.01757812 76.42114258 C-26.94151852 68.54022982 -23.86653117 60.65890443 -20.7956543 52.77597046 C-19.37268438 49.12342025 -17.94905925 45.47112557 -16.52539062 41.81884766 C-15.85839996 40.10722257 -15.19171673 38.39547765 -14.52539062 36.68359375 C-9.75455596 24.42697521 -4.90216446 12.20468245 0 0 Z " fill="#FEFEFD" transform="translate(576,393)"/>
<path d="M0 0 C0.33 0 0.66 0 1 0 C1.83862315 3.60295699 2.66998677 7.20755065 3.5 10.8125 C3.73847656 11.83666016 3.97695312 12.86082031 4.22265625 13.91601562 C4.44824219 14.89892578 4.67382812 15.88183594 4.90625 16.89453125 C5.11572266 17.80050049 5.32519531 18.70646973 5.54101562 19.63989258 C6 22 6 22 6 25 C5.01 25 4.02 25 3 25 C2.49420286 21.95919579 1.99519241 18.91753354 1.5 15.875 C1.35691406 15.0190625 1.21382813 14.163125 1.06640625 13.28125 C0.34304266 8.80328495 -0.17918816 4.55436565 0 0 Z " fill="#947865" transform="translate(66,602)"/>
</svg>
